# Blender 3.6.0
# www.blender.org
mtllib Pricorm.mtl
o Mball.015
v 2.700259 3.408996 -1.990314
v 2.700259 2.648736 -2.235190
v 3.364042 2.648736 -1.990314
v 2.700259 2.264099 -1.990314
v 2.700259 2.648736 -0.937915
v 1.634623 2.567863 -3.055950
v 1.634623 2.648736 -2.990735
v 1.597303 2.648736 -3.055950
v 1.634623 1.583100 -3.323471
v 1.857349 1.583100 -3.055950
v 1.634623 0.708807 -3.055950
v 1.634623 0.517463 -2.975565
v 2.595795 0.517463 -1.990314
v 2.595795 1.583100 -1.990314
v 2.700259 0.517463 -1.804348
v 2.700259 1.583100 -1.804348
v 2.700259 2.524435 -0.924677
v 2.648073 2.648736 -0.924677
v 2.700259 2.462771 0.140959
v 2.595795 2.648736 0.140959
v 2.700259 2.564179 1.206596
v 2.567083 2.648736 1.206596
v 0.568986 0.517463 -3.580508
v 1.538687 0.517463 -3.055950
v 0.568986 1.583100 -4.013050
v 0.568986 3.468853 -3.055950
v 0.568986 2.648736 -3.840636
v -0.496650 3.440958 -3.055950
v -0.496650 2.648736 -3.814672
v -0.496650 1.583100 -3.990021
v 0.568986 3.714373 -2.396116
v -0.496650 3.714373 -2.321822
v -0.496650 3.791683 -1.990314
v 0.568986 3.806987 -1.990314
v -0.496650 4.021034 -0.924677
v 0.568986 4.041704 -0.924677
v -0.706938 3.714373 -1.990314
v 0.568986 -0.366341 -3.055950
v -0.496650 -0.548173 -3.066201
v 0.191802 -0.548173 -3.055950
v -0.496650 0.517463 -3.563205
v -0.496650 -0.610727 -3.055950
v -0.535391 -0.548173 -3.055950
v -1.562287 -1.613810 -2.227603
v -0.496650 -1.613810 -2.859731
v -1.562287 -0.548173 -2.581264
v -1.562287 -1.859052 -1.990314
v -0.496650 -2.523749 -1.990314
v 0.568986 -2.237566 -1.990314
v 0.568986 -1.613810 -2.609729
v 1.164470 -1.613810 -1.990314
v -1.719943 -1.613810 -1.990314
v -1.562287 -2.038797 -0.924677
v -1.878162 -1.613810 -0.924677
v -1.562287 -1.613810 -0.085681
v -1.562287 -1.514948 0.140959
v -2.523460 -0.548173 -0.924677
v -2.523460 -0.548173 0.140959
v -2.627923 -0.362208 0.140959
v -2.627923 -0.362208 -0.924677
v -2.068287 -0.548173 -1.990314
v -2.523460 0.517463 -1.990314
v -2.627923 0.517463 -1.804348
v -2.523460 1.583100 -1.990314
v -2.627923 1.583100 -1.804348
v -1.562287 0.810653 -3.055950
v -1.730645 1.583100 -3.055950
v -1.562287 0.517463 -2.960663
v -1.562287 1.583100 -3.246661
v -1.437156 0.517463 -3.055950
v -1.562287 -1.016734 1.206596
v -2.030848 -0.548173 1.206596
v -0.496650 -1.509346 1.206596
v -0.496650 -1.613810 1.020630
v -1.423998 -1.613810 0.140959
v -0.496650 -2.035359 0.140959
v 0.568986 -1.613810 1.020630
v 0.568986 -1.935996 0.140959
v 1.634623 -1.613810 0.998412
v 1.634623 -1.864705 0.140959
v 1.634623 -1.613810 -0.632452
v 1.507071 -1.613810 -0.924677
v 0.568986 -2.369113 -0.924677
v 1.634623 -1.511076 -0.924677
v 2.504426 -1.613810 0.140959
v -1.562287 -0.548173 1.675157
v -1.178983 -0.548173 2.272232
v -0.496650 -1.241425 2.272232
v -1.562287 0.517463 2.167769
v -1.378699 0.517463 2.272232
v -2.523460 0.517463 1.206596
v 0.568986 -1.146828 2.272232
v 0.568986 -1.509346 1.206596
v 0.568986 -0.548173 -2.984551
v 0.837500 3.714373 -1.990314
v -1.456792 2.648736 -3.055950
v -1.562287 2.415207 -3.055950
v -1.562287 2.648736 -2.875865
v -2.047129 2.648736 -1.990314
v -1.562287 3.190880 -1.990314
v -1.562287 3.609909 0.140959
v -1.562287 3.714373 -0.406663
v -1.376321 3.714373 0.140959
v 1.634623 3.609909 0.140959
v 1.634623 3.714373 -0.415066
v 1.843878 3.714373 -0.924677
v 1.448657 3.714373 0.140959
v 1.634623 3.117308 1.206596
v 0.769236 3.714373 1.206596
v 0.568986 2.648736 2.171780
v 0.568986 3.714373 1.768073
v 1.634623 2.648736 1.822826
v 0.568986 2.462771 2.272232
v 1.634623 1.962172 2.272232
v 0.235472 2.648736 2.272232
v 1.634623 3.918767 -0.924677
v 1.634623 3.714373 -1.472082
v 0.568986 4.639775 0.140959
v -0.496650 4.031407 0.140959
v 3.006920 1.583100 0.140959
v 3.051414 1.583100 1.206596
v 2.700259 0.849922 1.206596
v 3.006920 0.517463 0.140959
v 2.700259 0.517463 1.020631
v 2.700259 -0.548173 1.026354
v 2.965743 -0.548173 0.140959
v 2.700259 -1.424268 0.140959
v 2.700259 -0.548173 -0.645507
v 2.595795 0.517463 1.206596
v 2.700259 1.583100 2.106375
v 2.373591 1.583100 2.272232
v 1.634623 1.583100 2.311846
v 1.634623 1.397132 2.272232
v 0.568986 0.517463 3.300399
v 0.568986 1.583100 2.578894
v 1.448658 0.517463 2.272232
v 1.634623 0.517463 2.167769
v 1.634623 -0.548173 1.696190
v 1.077086 -0.548173 2.272232
v 3.765895 0.517463 -1.209244
v 3.799419 0.517463 -0.924677
v 4.023693 1.583100 -0.924677
v 3.765895 1.583100 -1.442407
v 3.765895 0.492964 -0.924677
v 3.765895 0.517463 -0.880808
v 2.700259 -0.362208 -0.924677
v 3.765895 1.745272 -0.924677
v 3.765896 1.583100 -0.631940
v 2.597809 -0.548173 -0.924677
v 2.103184 -0.548173 -1.990314
v 1.634623 -1.017146 -1.990314
v 1.634623 -0.548173 -2.458874
v 2.521531 -0.548173 1.206596
v 1.634623 -1.416008 1.206596
v 1.634623 3.232528 -1.990314
v 0.568986 3.930161 1.206596
v 0.568986 -1.009642 3.337868
v 0.871528 -0.548173 3.337869
v 0.568986 -0.548173 3.677402
v 0.568986 0.488788 3.337869
v -1.562287 3.714373 -1.560335
v -1.562287 3.632610 1.206596
v -1.538835 3.714373 1.206596
v -2.030848 2.648736 1.206596
v -2.523460 2.648736 0.140959
v -1.562287 2.648736 1.715320
v -2.627923 2.361019 2.272232
v -2.627923 1.583100 2.999171
v -2.749931 1.583100 2.272232
v -2.627923 1.390499 2.272232
v -2.627923 1.583100 2.038577
v -1.562287 4.591041 -0.924677
v -1.998835 3.714373 -0.924677
v -2.627923 2.648736 -1.671780
v -2.627923 3.143423 -0.924677
v -2.627923 2.648736 -0.395498
v -2.627923 2.462771 0.140959
v -3.325170 2.648736 -0.924677
v -2.934585 1.583100 -0.924677
v -2.934585 1.583100 0.140959
v -2.627923 1.583100 1.020631
v -2.627923 0.517463 1.020631
v -2.934585 0.517463 0.140959
v -2.523460 1.583100 1.206596
v -1.562287 2.578458 2.272232
v -0.899715 2.648736 2.272232
v -1.562287 0.941929 2.272232
v -0.496650 2.648736 2.397088
v -0.496650 1.583100 2.578894
v -1.562287 1.583100 3.141777
v -1.013909 3.714373 2.272232
v -0.496650 3.714373 2.445396
v -0.496650 4.024114 2.272232
v 0.116896 3.714373 2.272232
v -0.496650 0.626304 3.337869
v -0.643280 0.517463 3.337869
v -0.496650 0.517463 3.450289
v 0.530081 0.517463 3.337869
v -0.496650 4.463923 1.206596
v -0.496650 -2.606481 -0.924677
v -3.693560 0.956787 -0.924677
v -3.693560 0.517463 -1.118647
v -3.693560 0.202365 -0.924677
v -3.693560 0.517463 -0.186834
v -3.876892 0.517463 -0.924677
v -0.496650 -1.147229 3.337869
v -0.496650 -0.548173 3.795596
v -0.989522 -0.548173 3.337869
vn 0.9615 -0.1247 -0.2449
vn 0.4214 0.0593 -0.9050
vn 0.3442 0.9313 -0.1192
vn 0.8363 -0.3444 -0.4265
vn 0.7514 0.4260 0.5040
vn 0.6341 0.4804 -0.6059
vn 0.6391 0.4001 -0.6569
vn 0.6612 0.1057 -0.7427
vn 0.7824 -0.0462 -0.6210
vn 0.6420 -0.0233 -0.7663
vn 0.6353 -0.1918 -0.7480
vn 0.8750 -0.0166 -0.4838
vn 0.8043 -0.1936 -0.5618
vn 0.6313 -0.2900 -0.7192
vn 0.8232 0.1370 -0.5509
vn 0.7208 -0.3115 -0.6192
vn 0.7156 0.6700 0.1975
vn 0.8848 0.4620 -0.0614
vn 0.7474 0.6617 0.0597
vn 0.8474 0.5222 0.0962
vn 0.5965 0.6886 0.4123
vn 0.7791 0.5495 0.3018
vn 0.5164 -0.4124 -0.7505
vn 0.2397 -0.3994 -0.8849
vn 0.2698 -0.0941 -0.9583
vn 0.2748 0.4113 -0.8691
vn 0.2496 0.8097 -0.5311
vn -0.2904 0.4194 -0.8601
vn -0.2768 0.8021 -0.5291
vn -0.2895 -0.0840 -0.9535
vn -0.2471 0.9230 -0.2949
vn 0.2223 0.9277 -0.3000
vn 0.1217 0.9667 -0.2251
vn -0.0943 0.9407 -0.3260
vn 0.0701 0.9653 -0.2516
vn 0.0856 0.9929 -0.0826
vn -0.4093 0.7384 -0.5359
vn 0.2697 -0.4269 -0.8631
vn 0.0958 -0.6957 -0.7119
vn -0.1668 -0.2961 -0.9405
vn -0.2424 -0.3767 -0.8941
vn -0.1904 -0.2111 -0.9587
vn -0.4148 -0.2812 -0.8654
vn -0.1505 -0.4531 -0.8786
vn -0.5927 -0.4109 -0.6927
vn -0.5803 -0.2836 -0.7634
vn -0.1268 -0.9043 -0.4077
vn -0.6257 -0.6888 -0.3661
vn 0.3657 -0.5060 -0.7812
vn 0.4288 -0.8093 -0.4015
vn 0.6701 -0.6301 -0.3924
vn -0.8230 -0.4272 -0.3744
vn -0.8476 -0.5280 0.0532
vn -0.6353 -0.7615 0.1287
vn -0.6436 -0.6855 0.3403
vn -0.8622 -0.4889 -0.1326
vn -0.6502 -0.6995 0.2965
vn -0.7912 -0.5858 0.1758
vn -0.7333 -0.6199 -0.2793
vn -0.8031 -0.5268 0.2783
vn -0.8094 -0.1984 -0.5528
vn -0.8102 -0.3277 -0.4860
vn -0.7410 -0.2538 -0.6216
vn -0.7630 0.1220 -0.6348
vn -0.7686 0.0959 -0.6325
vn -0.7690 0.0221 -0.6389
vn -0.6343 -0.2040 -0.7457
vn -0.6003 -0.2710 -0.7525
vn -0.6607 -0.0150 -0.7505
vn -0.4738 -0.3129 -0.8232
vn -0.7092 -0.4979 0.4992
vn -0.5711 -0.7121 0.4083
vn -0.4537 -0.8068 0.3784
vn -0.1852 -0.8807 0.4359
vn -0.1972 -0.9086 0.3683
vn -0.1593 -0.8942 0.4183
vn 0.1611 -0.9416 0.2957
vn 0.0300 -0.8902 0.4545
vn 0.1757 -0.9844 0.0130
vn 0.2657 -0.8254 0.4981
vn 0.5933 -0.7874 -0.1672
vn 0.3101 -0.8899 -0.3346
vn 0.4212 -0.8982 0.1261
vn 0.6496 -0.6782 -0.3437
vn 0.5139 -0.8566 0.0458
vn -0.3133 -0.9187 0.2406
vn -0.8144 -0.3832 0.4357
vn -0.6774 -0.4373 0.5916
vn -0.7659 -0.1039 0.6345
vn -0.6072 -0.3556 0.7105
vn -0.8272 -0.2892 0.4817
vn 0.0418 -0.9008 0.4321
vn 0.3726 -0.8738 0.3125
vn 0.2882 -0.3486 -0.8919
vn 0.3443 0.8857 -0.3116
vn -0.6460 0.4930 -0.5828
vn -0.7246 0.2581 -0.6391
vn -0.7259 0.5293 -0.4392
vn -0.6637 0.4926 -0.5629
vn -0.5560 0.6594 -0.5061
vn -0.4838 0.8706 0.0894
vn -0.7593 0.5275 0.3811
vn -0.6608 0.7332 0.1604
vn 0.7572 0.6513 -0.0498
vn 0.6509 0.7520 0.1040
vn 0.5932 0.7751 0.2175
vn 0.5985 0.7450 0.2945
vn 0.6408 0.6254 0.4453
vn 0.5004 0.7413 0.4473
vn 0.5713 0.6013 0.5586
vn 0.4110 0.4445 0.7959
vn 0.3270 0.6426 0.6929
vn 0.2460 0.3965 0.8845
vn 0.1887 0.3746 0.9078
vn 0.3012 0.1669 0.9388
vn 0.5067 0.7563 -0.4139
vn 0.4674 0.8685 -0.1647
vn 0.2210 0.9743 0.0428
vn -0.1879 0.9822 -0.0038
vn 0.9785 0.0191 0.2053
vn 0.9107 0.0913 0.4028
vn 0.9220 -0.2088 0.3262
vn 0.8364 -0.2980 0.4601
vn 0.8978 -0.1185 0.4241
vn 0.9854 -0.1700 0.0068
vn 0.8214 -0.2665 0.5043
vn 0.7821 -0.6225 0.0302
vn 0.8619 -0.3370 -0.3788
vn 0.7383 -0.1482 0.6580
vn 0.6369 -0.0784 0.7669
vn 0.3422 -0.0984 0.9345
vn 0.1589 0.1622 0.9739
vn 0.4356 -0.0778 0.8968
vn 0.1417 0.4188 0.8970
vn 0.5410 0.3690 0.7558
vn 0.6712 -0.1980 0.7143
vn 0.6152 -0.1750 0.7687
vn 0.7720 -0.3507 0.5301
vn 0.5840 -0.3380 0.7381
vn 0.6401 0.3230 -0.6971
vn 0.9292 0.3414 0.1418
vn 0.8496 -0.4956 0.1804
vn 0.6639 -0.4032 -0.6298
vn 0.5850 -0.8092 0.0549
vn 0.6966 -0.4434 0.5640
vn 0.8202 -0.4969 -0.2835
vn 0.7759 0.3195 0.5439
vn 0.5458 0.8320 -0.0997
vn 0.7478 -0.5341 -0.3943
vn 0.6619 -0.6062 -0.4409
vn 0.7097 -0.4998 -0.4965
vn 0.5669 -0.4207 -0.7082
vn 0.6391 -0.3335 0.6931
vn 0.3886 -0.6728 0.6295
vn 0.4444 0.7887 -0.4248
vn 0.4858 0.8131 0.3207
vn 0.9009 -0.1536 0.4060
vn 0.4382 -0.7846 0.4387
vn 0.4174 -0.1418 0.8976
vn 0.5706 0.2810 0.7716
vn -0.5237 0.5548 -0.6464
vn -0.7581 0.6362 0.1433
vn -0.8484 0.4095 0.3354
vn -0.8069 0.5161 0.2873
vn -0.7740 0.5819 0.2497
vn -0.4485 0.7660 0.4604
vn -0.9712 -0.1890 -0.1451
vn -0.5918 -0.1470 0.7926
vn -0.6999 0.6759 0.2308
vn -0.7527 -0.6213 0.2177
vn -0.9591 0.0419 -0.2801
vn -0.4128 0.9099 -0.0405
vn -0.7597 0.6472 -0.0631
vn -0.6695 0.3594 -0.6501
vn -0.6520 0.7565 -0.0505
vn -0.5321 0.7506 0.3918
vn -0.8682 0.3689 0.3318
vn -0.9207 0.3884 -0.0385
vn -0.9529 0.3013 -0.0347
vn -0.9267 0.1630 0.3387
vn -0.8847 0.2058 0.4182
vn -0.8705 -0.0750 0.4865
vn -0.8958 -0.1872 0.4031
vn -0.9705 0.1933 0.1444
vn -0.3616 0.2513 0.8978
vn -0.0737 0.8494 0.5226
vn -0.4581 -0.4802 0.7480
vn 0.0271 0.3464 0.9377
vn -0.0196 0.0941 0.9954
vn -0.0792 0.1067 0.9911
vn -0.0351 0.2284 0.9729
vn -0.6490 0.3485 0.6763
vn -0.0514 0.7895 0.6116
vn 0.4408 0.4455 0.7792
vn -0.2568 0.4787 0.8396
vn -0.7559 0.1606 0.6346
vn -0.2547 0.4899 0.8337
vn 0.1969 0.7520 0.6290
vn -0.1690 0.9731 0.1567
vn -0.1422 -0.9760 0.1651
vn -0.6204 -0.1882 -0.7614
vn -0.8635 0.4742 -0.1717
vn -0.6910 -0.6958 -0.1959
vn -0.7240 0.1668 0.6694
vn -0.9725 -0.0578 -0.2258
vn -0.3081 -0.8436 0.4398
vn -0.2765 -0.1489 0.9494
vn -0.8367 -0.2476 0.4885
s 1
usemtl Pricorncka
f 3//1 2//2 1//3
f 2//2 3//1 4//4
f 5//5 3//1 1//3
f 8//6 7//7 6//8
f 10//9 9//10 6//8
f 9//10 10//9 11//11
f 14//12 13//13 12//14 11//11
f 10//9 14//12 11//11
f 13//13 14//12 16//15 15//16
f 4//4 5//5 18//17 17//18
f 16//15 14//12 4//4 17//18
f 17//18 18//17 20//19 19//20
f 19//20 20//19 22//21 21//22
f 9//10 11//11 24//23 23//24
f 25//25 9//10 23//24
f 12//14 24//23 11//11
f 8//6 27//26 26//27
f 26//27 27//26 29//28 28//29
f 29//28 27//26 25//25 30//30
f 32//31 31//32 26//27 28//29
f 34//33 31//32 32//31 33//34
f 36//35 34//33 33//34 35//36
f 32//31 37//37 33//34
f 23//24 24//23 38//38
f 23//24 38//38 40//39 39//40
f 41//41 23//24 39//40
f 39//40 40//39 42//42
f 43//43 39//40 42//42
f 43//43 42//42 45//44 44//45
f 46//46 43//43 44//45
f 44//45 45//44 48//47 47//48
f 45//44 50//49 49//50 48//47
f 50//49 51//51 49//50
f 52//52 44//45 47//48
f 54//53 52//52 47//48 53//54
f 55//55 54//53 53//54
f 57//56 54//53 55//55 56//57
f 58//58 57//56 56//57
f 60//59 57//56 58//58 59//60
f 62//61 61//62 57//56 60//59
f 63//63 62//61 60//59
f 65//64 64//65 62//61 63//63
f 62//61 64//65 67//66 66//67
f 68//68 62//61 66//67
f 67//66 69//69 66//67
f 30//30 41//41 70//70 66//67
f 69//69 30//30 66//67
f 70//70 68//68 66//67
f 72//71 58//58 56//57 71//72
f 75//73 74//74 73//75 71//72
f 56//57 75//73 71//72
f 74//74 75//73 76//76
f 78//77 77//78 74//74 76//76
f 80//79 79//80 77//78 78//77
f 82//81 81//82 80//79 78//77
f 83//83 82//81 78//77
f 81//82 82//81 84//84
f 85//85 79//80 80//79
f 88//86 87//87 86//88 71//72
f 73//75 88//86 71//72
f 87//87 90//89 89//90 86//88
f 89//90 91//91 72//71 86//88
f 73//75 93//92 92//93 88//86
f 94//94 40//39 38//38
f 95//95 31//32 34//33
f 29//28 96//96 28//29
f 29//28 30//30 69//69 97//97
f 96//96 29//28 97//97
f 98//98 96//96 97//97
f 43//43 70//70 41//41 39//40
f 64//65 99//99 98//98 97//97
f 67//66 64//65 97//97
f 98//98 99//99 100//100
f 103//101 102//102 101//103
f 18//17 106//104 105//105 104//106
f 20//19 18//17 104//106
f 105//105 107//107 104//106
f 104//106 107//107 109//108 108//109
f 108//109 109//108 111//110 110//111
f 112//112 108//109 110//111
f 114//113 112//112 110//111 113//114
f 110//111 115//115 113//114
f 112//112 22//21 108//109
f 106//104 117//116 116//117
f 105//105 106//104 116//117
f 105//105 116//117 36//35 118//118
f 107//107 105//105 118//118
f 118//118 36//35 35//36 119//119
f 121//120 120//121 19//20 21//22
f 123//122 120//121 121//120 122//123
f 124//124 123//122 122//123
f 126//125 123//122 124//124 125//126
f 126//125 125//126 127//127
f 128//128 126//125 127//127
f 129//129 124//124 122//123
f 121//120 130//130 122//123
f 21//22 22//21 112//112 114//113
f 131//131 130//130 21//22 114//113
f 132//132 131//131 114//113
f 131//131 132//132 133//133
f 133//133 132//132 135//134 134//135
f 136//136 133//133 134//135
f 136//136 137//137 133//133
f 137//137 136//136 139//138 138//139
f 122//123 130//130 131//131 133//133
f 137//137 129//129 122//123 133//133
f 143//140 142//141 141//142 140//143
f 140//143 141//142 144//144
f 141//142 145//145 144//144
f 15//16 140//143 144//144 146//146
f 148//147 142//141 147//148
f 141//142 142//141 148//147 145//145
f 3//1 5//5 4//4
f 147//148 143//140 16//15 17//18
f 148//147 147//148 17//18 19//20
f 120//121 148//147 19//20
f 16//15 143//140 140//143 15//16
f 128//128 149//149 146//146
f 148//147 120//121 123//122 145//145
f 123//122 126//125 128//128 146//146
f 144//144 145//145 123//122 146//146
f 127//127 85//85 81//82 84//84
f 149//149 128//128 127//127 84//84
f 151//150 150//151 149//149 84//84
f 152//152 150//151 151//150
f 81//82 85//85 80//79
f 153//153 129//129 137//137 138//139
f 153//153 138//139 154//154
f 127//127 125//126 153//153 154//154
f 79//80 85//85 127//127 154//154
f 1//3 2//2 7//7 155//155
f 4//4 14//12 10//9 6//8
f 7//7 2//2 4//4 6//8
f 12//14 13//13 150//151 152//152
f 18//17 5//5 1//3 155//155
f 117//116 106//104 18//17 155//155
f 95//95 117//116 155//155
f 142//141 143//140 147//148
f 150//151 13//13 15//16 146//146
f 149//149 150//151 146//146
f 22//21 20//19 104//106 108//109
f 130//130 121//120 21//22
f 124//124 129//129 153//153 125//126
f 155//155 7//7 8//6 26//27
f 31//32 95//95 155//155 26//27
f 8//6 6//8 9//10 25//25
f 27//26 8//6 25//25
f 117//116 95//95 34//33 36//35
f 116//117 117//116 36//35
f 49//50 51//51 82//81 83//83
f 111//110 109//108 156//156
f 135//134 132//132 114//113 113//114
f 154//154 138//139 139//138 92//93
f 93//92 154//154 92//93
f 92//93 139//138 158//157 157//158
f 158//157 159//159 157//158
f 159//159 158//157 160//160
f 28//29 96//96 98//98 100//100
f 37//37 32//31 28//29 100//100
f 161//161 37//37 100//100
f 69//69 67//66 97//97
f 68//68 70//70 43//43 46//46
f 163//162 103//101 101//103 162//163
f 101//103 165//164 164//165 162//163
f 164//165 166//166 162//163
f 169//167 168//168 167//169
f 168//168 169//167 170//170
f 169//167 171//171 170//170
f 86//88 72//71 71//72
f 33//34 37//37 161//161 172//172
f 35//36 33//34 172//172
f 103//101 119//119 35//36 172//172
f 102//102 103//101 172//172
f 161//161 173//173 172//172
f 173//173 102//102 172//172
f 174//174 99//99 64//65 65//64
f 100//100 99//99 174//174 175//175
f 173//173 161//161 100//100 175//175
f 101//103 102//102 173//173 175//175
f 176//176 165//164 101//103 175//175
f 165//164 176//176 177//177
f 174//174 178//178 175//175
f 179//179 178//178 174//174 65//64
f 178//178 176//176 175//175
f 178//178 179//179 180//180 177//177
f 176//176 178//178 177//177
f 180//180 181//181 177//177
f 181//181 180//180 183//182 182//183
f 182//183 183//182 59//60
f 91//91 184//184 181//181 182//183
f 186//185 166//166 185//186
f 89//90 90//89 187//187
f 189//188 188//189 186//185 185//186
f 190//190 189//188 185//186
f 192//191 191//192 186//185 188//189
f 191//192 192//191 193//193
f 115//115 194//194 192//191 188//189
f 195//195 189//188 190//190 187//187
f 90//89 196//196 195//195 187//187
f 196//196 197//197 195//195
f 197//197 198//198 195//195
f 164//165 184//184 171//171 167//169
f 185//186 166//166 164//165 167//169
f 171//171 169//167 167//169
f 91//91 89//90 187//187 170//170
f 171//171 184//184 91//91 170//170
f 168//168 190//190 185//186 167//169
f 187//187 190//190 168//168 170//170
f 109//108 107//107 118//118 156//156
f 111//110 194//194 115//115 110//111
f 156//156 118//118 119//119 199//199
f 111//110 156//156 199//199 193//193
f 194//194 111//110 193//193
f 192//191 194//194 193//193
f 113//114 115//115 188//189 189//188
f 135//134 113//114 189//188
f 119//119 103//101 163//162 199//199
f 184//184 164//165 165//164 177//177
f 181//181 184//184 177//177
f 199//199 163//162 191//192 193//193
f 186//185 191//192 163//162 162//163
f 166//166 186//185 162//163
f 12//14 152//152 94//94 38//38
f 24//23 12//14 38//38
f 152//152 151//150 51//51 50//49
f 94//94 152//152 50//49
f 82//81 51//51 151//150 84//84
f 77//78 79//80 154//154 93//92
f 30//30 25//25 23//24 41//41
f 94//94 50//49 45//44 42//42
f 40//39 94//94 42//42
f 48//47 49//50 83//83 200//200
f 74//74 77//78 93//92 73//75
f 200//200 83//83 78//77 76//76
f 61//62 62//61 68//68 46//46
f 52//52 61//62 46//46 44//45
f 57//56 61//62 52//52 54//53
f 47//48 48//47 200//200 53//54
f 72//71 91//91 182//183 59//60
f 58//58 72//71 59//60
f 55//55 75//73 56//57
f 76//76 75//73 55//55 53//54
f 200//200 76//76 53//54
f 65//64 63//63 202//201 201//202
f 179//179 65//64 201//202
f 202//201 63//63 60//59 203//203
f 183//182 180//180 179//179 201//202
f 204//204 183//182 201//202
f 59//60 183//182 204//204 203//203
f 60//59 59//60 203//203
f 202//201 205//205 201//202
f 205//205 202//201 203//203
f 205//205 204//204 201//202
f 204//204 205//205 203//203
f 134//135 198//198 160//160
f 139//138 136//136 134//135 160//160
f 158//157 139//138 160//160
f 134//135 135//134 189//188 195//195
f 198//198 134//135 195//195
f 88//86 92//93 157//158 206//206
f 160//160 198//198 197//197 207//207
f 159//159 160//160 207//207
f 157//158 159//159 207//207 206//206
f 196//196 90//89 87//87 208//208
f 208//208 87//87 88//86 206//206
f 197//197 196//196 208//208 207//207
f 207//207 208//208 206//206
